<mxfile host="app.diagrams.net" agent="Mozilla/5.0 (Windows NT 10.0; Win64; x64) AppleWebKit/537.36 (KHTML, like Gecko) Chrome/122.0.0.0 Safari/537.36" version="26.2.14">
  <diagram name="Pagina-1" id="-p1elMYsu_wJQjBSrHkD">
    <mxGraphModel dx="3432" dy="2487" grid="0" gridSize="7" guides="1" tooltips="1" connect="1" arrows="1" fold="1" page="1" pageScale="1" pageWidth="827" pageHeight="1169" background="#FFFFFF" math="0" shadow="0">
      <root>
        <mxCell id="0" />
        <mxCell id="1" parent="0" />
        <mxCell id="kCbmd7u-PkFG1ZoSzvHW-94" style="edgeStyle=orthogonalEdgeStyle;rounded=0;orthogonalLoop=1;jettySize=auto;html=1;entryX=0;entryY=0.5;entryDx=0;entryDy=0;labelBackgroundColor=none;strokeColor=#A8201A;fontColor=default;" edge="1" parent="1" source="kCbmd7u-PkFG1ZoSzvHW-1" target="kCbmd7u-PkFG1ZoSzvHW-6">
          <mxGeometry relative="1" as="geometry">
            <mxPoint x="-462" y="395" as="targetPoint" />
            <Array as="points">
              <mxPoint x="-735" y="386" />
              <mxPoint x="-462" y="386" />
            </Array>
          </mxGeometry>
        </mxCell>
        <mxCell id="kCbmd7u-PkFG1ZoSzvHW-98" style="edgeStyle=orthogonalEdgeStyle;rounded=0;orthogonalLoop=1;jettySize=auto;html=1;exitX=0.5;exitY=0;exitDx=0;exitDy=0;entryX=0.5;entryY=0;entryDx=0;entryDy=0;labelBackgroundColor=none;strokeColor=#A8201A;fontColor=default;" edge="1" parent="1" source="kCbmd7u-PkFG1ZoSzvHW-1" target="kCbmd7u-PkFG1ZoSzvHW-86">
          <mxGeometry relative="1" as="geometry" />
        </mxCell>
        <mxCell id="kCbmd7u-PkFG1ZoSzvHW-1" value="Utente" style="swimlane;fontStyle=0;childLayout=stackLayout;horizontal=1;startSize=26;fillColor=none;horizontalStack=0;resizeParent=1;resizeParentMax=0;resizeLast=0;collapsible=1;marginBottom=0;whiteSpace=wrap;html=1;labelBackgroundColor=none;strokeColor=#0F8B8D;fontColor=#143642;rounded=0;" vertex="1" parent="1">
          <mxGeometry x="-805" y="434" width="140" height="208" as="geometry" />
        </mxCell>
        <mxCell id="kCbmd7u-PkFG1ZoSzvHW-2" value="- nome" style="text;strokeColor=none;fillColor=none;align=left;verticalAlign=top;spacingLeft=4;spacingRight=4;overflow=hidden;rotatable=0;points=[[0,0.5],[1,0.5]];portConstraint=eastwest;whiteSpace=wrap;html=1;labelBackgroundColor=none;fontColor=#143642;rounded=0;" vertex="1" parent="kCbmd7u-PkFG1ZoSzvHW-1">
          <mxGeometry y="26" width="140" height="26" as="geometry" />
        </mxCell>
        <mxCell id="kCbmd7u-PkFG1ZoSzvHW-3" value="- cognome" style="text;strokeColor=none;fillColor=none;align=left;verticalAlign=top;spacingLeft=4;spacingRight=4;overflow=hidden;rotatable=0;points=[[0,0.5],[1,0.5]];portConstraint=eastwest;whiteSpace=wrap;html=1;labelBackgroundColor=none;fontColor=#143642;rounded=0;" vertex="1" parent="kCbmd7u-PkFG1ZoSzvHW-1">
          <mxGeometry y="52" width="140" height="26" as="geometry" />
        </mxCell>
        <mxCell id="kCbmd7u-PkFG1ZoSzvHW-4" value="- data_nascita" style="text;strokeColor=none;fillColor=none;align=left;verticalAlign=top;spacingLeft=4;spacingRight=4;overflow=hidden;rotatable=0;points=[[0,0.5],[1,0.5]];portConstraint=eastwest;whiteSpace=wrap;html=1;labelBackgroundColor=none;fontColor=#143642;rounded=0;" vertex="1" parent="kCbmd7u-PkFG1ZoSzvHW-1">
          <mxGeometry y="78" width="140" height="26" as="geometry" />
        </mxCell>
        <mxCell id="kCbmd7u-PkFG1ZoSzvHW-5" value="- sesso" style="text;strokeColor=none;fillColor=none;align=left;verticalAlign=top;spacingLeft=4;spacingRight=4;overflow=hidden;rotatable=0;points=[[0,0.5],[1,0.5]];portConstraint=eastwest;whiteSpace=wrap;html=1;labelBackgroundColor=none;fontColor=#143642;rounded=0;" vertex="1" parent="kCbmd7u-PkFG1ZoSzvHW-1">
          <mxGeometry y="104" width="140" height="26" as="geometry" />
        </mxCell>
        <mxCell id="kCbmd7u-PkFG1ZoSzvHW-45" value="- email" style="text;strokeColor=none;fillColor=none;align=left;verticalAlign=top;spacingLeft=4;spacingRight=4;overflow=hidden;rotatable=0;points=[[0,0.5],[1,0.5]];portConstraint=eastwest;whiteSpace=wrap;html=1;labelBackgroundColor=none;fontColor=#143642;rounded=0;" vertex="1" parent="kCbmd7u-PkFG1ZoSzvHW-1">
          <mxGeometry y="130" width="140" height="26" as="geometry" />
        </mxCell>
        <mxCell id="kCbmd7u-PkFG1ZoSzvHW-127" value="- nome_utente" style="text;strokeColor=none;fillColor=none;align=left;verticalAlign=top;spacingLeft=4;spacingRight=4;overflow=hidden;rotatable=0;points=[[0,0.5],[1,0.5]];portConstraint=eastwest;whiteSpace=wrap;html=1;labelBackgroundColor=none;fontColor=#143642;rounded=0;" vertex="1" parent="kCbmd7u-PkFG1ZoSzvHW-1">
          <mxGeometry y="156" width="140" height="26" as="geometry" />
        </mxCell>
        <mxCell id="kCbmd7u-PkFG1ZoSzvHW-128" value="- password" style="text;strokeColor=none;fillColor=none;align=left;verticalAlign=top;spacingLeft=4;spacingRight=4;overflow=hidden;rotatable=0;points=[[0,0.5],[1,0.5]];portConstraint=eastwest;whiteSpace=wrap;html=1;labelBackgroundColor=none;fontColor=#143642;rounded=0;" vertex="1" parent="kCbmd7u-PkFG1ZoSzvHW-1">
          <mxGeometry y="182" width="140" height="26" as="geometry" />
        </mxCell>
        <mxCell id="kCbmd7u-PkFG1ZoSzvHW-100" style="edgeStyle=orthogonalEdgeStyle;rounded=0;orthogonalLoop=1;jettySize=auto;html=1;exitX=0.5;exitY=0;exitDx=0;exitDy=0;entryX=0;entryY=0.5;entryDx=0;entryDy=0;labelBackgroundColor=none;strokeColor=#A8201A;fontColor=default;" edge="1" parent="1" source="kCbmd7u-PkFG1ZoSzvHW-6" target="kCbmd7u-PkFG1ZoSzvHW-70">
          <mxGeometry relative="1" as="geometry" />
        </mxCell>
        <mxCell id="kCbmd7u-PkFG1ZoSzvHW-6" value="Cliente" style="swimlane;fontStyle=0;childLayout=stackLayout;horizontal=1;startSize=26;fillColor=none;horizontalStack=0;resizeParent=1;resizeParentMax=0;resizeLast=0;collapsible=1;marginBottom=0;whiteSpace=wrap;html=1;labelBackgroundColor=none;strokeColor=#0F8B8D;fontColor=#143642;rounded=0;" vertex="1" parent="1">
          <mxGeometry x="-455" y="359" width="140" height="52" as="geometry" />
        </mxCell>
        <mxCell id="kCbmd7u-PkFG1ZoSzvHW-11" value="Prenotazione" style="swimlane;fontStyle=0;childLayout=stackLayout;horizontal=1;startSize=26;fillColor=none;horizontalStack=0;resizeParent=1;resizeParentMax=0;resizeLast=0;collapsible=1;marginBottom=0;whiteSpace=wrap;html=1;labelBackgroundColor=none;strokeColor=#0F8B8D;fontColor=#143642;rounded=0;" vertex="1" parent="1">
          <mxGeometry x="35" y="379" width="220" height="130" as="geometry" />
        </mxCell>
        <mxCell id="kCbmd7u-PkFG1ZoSzvHW-12" value="- id_prenotazione" style="text;strokeColor=none;fillColor=none;align=left;verticalAlign=top;spacingLeft=4;spacingRight=4;overflow=hidden;rotatable=0;points=[[0,0.5],[1,0.5]];portConstraint=eastwest;whiteSpace=wrap;html=1;labelBackgroundColor=none;fontColor=#143642;rounded=0;" vertex="1" parent="kCbmd7u-PkFG1ZoSzvHW-11">
          <mxGeometry y="26" width="220" height="26" as="geometry" />
        </mxCell>
        <mxCell id="kCbmd7u-PkFG1ZoSzvHW-13" value="- orario_prenotazione" style="text;strokeColor=none;fillColor=none;align=left;verticalAlign=top;spacingLeft=4;spacingRight=4;overflow=hidden;rotatable=0;points=[[0,0.5],[1,0.5]];portConstraint=eastwest;whiteSpace=wrap;html=1;labelBackgroundColor=none;fontColor=#143642;rounded=0;" vertex="1" parent="kCbmd7u-PkFG1ZoSzvHW-11">
          <mxGeometry y="52" width="220" height="26" as="geometry" />
        </mxCell>
        <mxCell id="kCbmd7u-PkFG1ZoSzvHW-46" value="- data_prenotazione" style="text;strokeColor=none;fillColor=none;align=left;verticalAlign=top;spacingLeft=4;spacingRight=4;overflow=hidden;rotatable=0;points=[[0,0.5],[1,0.5]];portConstraint=eastwest;whiteSpace=wrap;html=1;labelBackgroundColor=none;fontColor=#143642;rounded=0;" vertex="1" parent="kCbmd7u-PkFG1ZoSzvHW-11">
          <mxGeometry y="78" width="220" height="26" as="geometry" />
        </mxCell>
        <mxCell id="kCbmd7u-PkFG1ZoSzvHW-49" value="- data_riservata" style="text;strokeColor=none;fillColor=none;align=left;verticalAlign=top;spacingLeft=4;spacingRight=4;overflow=hidden;rotatable=0;points=[[0,0.5],[1,0.5]];portConstraint=eastwest;whiteSpace=wrap;html=1;labelBackgroundColor=none;fontColor=#143642;rounded=0;" vertex="1" parent="kCbmd7u-PkFG1ZoSzvHW-11">
          <mxGeometry y="104" width="220" height="26" as="geometry" />
        </mxCell>
        <mxCell id="kCbmd7u-PkFG1ZoSzvHW-21" value="Campo" style="swimlane;fontStyle=0;childLayout=stackLayout;horizontal=1;startSize=26;fillColor=none;horizontalStack=0;resizeParent=1;resizeParentMax=0;resizeLast=0;collapsible=1;marginBottom=0;whiteSpace=wrap;html=1;labelBackgroundColor=none;strokeColor=#0F8B8D;fontColor=#143642;rounded=0;" vertex="1" parent="1">
          <mxGeometry x="672" y="366" width="140" height="156" as="geometry" />
        </mxCell>
        <mxCell id="kCbmd7u-PkFG1ZoSzvHW-22" value="- sport" style="text;strokeColor=none;fillColor=none;align=left;verticalAlign=top;spacingLeft=4;spacingRight=4;overflow=hidden;rotatable=0;points=[[0,0.5],[1,0.5]];portConstraint=eastwest;whiteSpace=wrap;html=1;labelBackgroundColor=none;fontColor=#143642;rounded=0;" vertex="1" parent="kCbmd7u-PkFG1ZoSzvHW-21">
          <mxGeometry y="26" width="140" height="26" as="geometry" />
        </mxCell>
        <mxCell id="kCbmd7u-PkFG1ZoSzvHW-23" value="- numero" style="text;strokeColor=none;fillColor=none;align=left;verticalAlign=top;spacingLeft=4;spacingRight=4;overflow=hidden;rotatable=0;points=[[0,0.5],[1,0.5]];portConstraint=eastwest;whiteSpace=wrap;html=1;labelBackgroundColor=none;fontColor=#143642;rounded=0;" vertex="1" parent="kCbmd7u-PkFG1ZoSzvHW-21">
          <mxGeometry y="52" width="140" height="26" as="geometry" />
        </mxCell>
        <mxCell id="kCbmd7u-PkFG1ZoSzvHW-24" value="- tipologia_terreno" style="text;strokeColor=none;fillColor=none;align=left;verticalAlign=top;spacingLeft=4;spacingRight=4;overflow=hidden;rotatable=0;points=[[0,0.5],[1,0.5]];portConstraint=eastwest;whiteSpace=wrap;html=1;labelBackgroundColor=none;fontColor=#143642;rounded=0;" vertex="1" parent="kCbmd7u-PkFG1ZoSzvHW-21">
          <mxGeometry y="78" width="140" height="26" as="geometry" />
        </mxCell>
        <mxCell id="kCbmd7u-PkFG1ZoSzvHW-25" value="- coperto/scoperto" style="text;strokeColor=none;fillColor=none;align=left;verticalAlign=top;spacingLeft=4;spacingRight=4;overflow=hidden;rotatable=0;points=[[0,0.5],[1,0.5]];portConstraint=eastwest;whiteSpace=wrap;html=1;labelBackgroundColor=none;fontColor=#143642;rounded=0;" vertex="1" parent="kCbmd7u-PkFG1ZoSzvHW-21">
          <mxGeometry y="104" width="140" height="26" as="geometry" />
        </mxCell>
        <mxCell id="kCbmd7u-PkFG1ZoSzvHW-26" value="- costo/h" style="text;strokeColor=none;fillColor=none;align=left;verticalAlign=top;spacingLeft=4;spacingRight=4;overflow=hidden;rotatable=0;points=[[0,0.5],[1,0.5]];portConstraint=eastwest;whiteSpace=wrap;html=1;labelBackgroundColor=none;fontColor=#143642;rounded=0;" vertex="1" parent="kCbmd7u-PkFG1ZoSzvHW-21">
          <mxGeometry y="130" width="140" height="26" as="geometry" />
        </mxCell>
        <mxCell id="kCbmd7u-PkFG1ZoSzvHW-27" value="Pagamento&amp;nbsp;" style="swimlane;fontStyle=0;childLayout=stackLayout;horizontal=1;startSize=26;fillColor=none;horizontalStack=0;resizeParent=1;resizeParentMax=0;resizeLast=0;collapsible=1;marginBottom=0;whiteSpace=wrap;html=1;labelBackgroundColor=none;strokeColor=#0F8B8D;fontColor=#143642;rounded=0;" vertex="1" parent="1">
          <mxGeometry x="-182" y="803" width="140" height="104" as="geometry" />
        </mxCell>
        <mxCell id="kCbmd7u-PkFG1ZoSzvHW-28" value="- id_pagamento" style="text;strokeColor=none;fillColor=none;align=left;verticalAlign=top;spacingLeft=4;spacingRight=4;overflow=hidden;rotatable=0;points=[[0,0.5],[1,0.5]];portConstraint=eastwest;whiteSpace=wrap;html=1;labelBackgroundColor=none;fontColor=#143642;rounded=0;" vertex="1" parent="kCbmd7u-PkFG1ZoSzvHW-27">
          <mxGeometry y="26" width="140" height="26" as="geometry" />
        </mxCell>
        <mxCell id="kCbmd7u-PkFG1ZoSzvHW-29" value="- importo" style="text;strokeColor=none;fillColor=none;align=left;verticalAlign=top;spacingLeft=4;spacingRight=4;overflow=hidden;rotatable=0;points=[[0,0.5],[1,0.5]];portConstraint=eastwest;whiteSpace=wrap;html=1;labelBackgroundColor=none;fontColor=#143642;rounded=0;" vertex="1" parent="kCbmd7u-PkFG1ZoSzvHW-27">
          <mxGeometry y="52" width="140" height="26" as="geometry" />
        </mxCell>
        <mxCell id="kCbmd7u-PkFG1ZoSzvHW-30" value="- data" style="text;strokeColor=none;fillColor=none;align=left;verticalAlign=top;spacingLeft=4;spacingRight=4;overflow=hidden;rotatable=0;points=[[0,0.5],[1,0.5]];portConstraint=eastwest;whiteSpace=wrap;html=1;labelBackgroundColor=none;fontColor=#143642;rounded=0;" vertex="1" parent="kCbmd7u-PkFG1ZoSzvHW-27">
          <mxGeometry y="78" width="140" height="26" as="geometry" />
        </mxCell>
        <mxCell id="kCbmd7u-PkFG1ZoSzvHW-32" value="Carta_credito" style="swimlane;fontStyle=0;childLayout=stackLayout;horizontal=1;startSize=26;fillColor=none;horizontalStack=0;resizeParent=1;resizeParentMax=0;resizeLast=0;collapsible=1;marginBottom=0;whiteSpace=wrap;html=1;labelBackgroundColor=none;strokeColor=#0F8B8D;fontColor=#143642;rounded=0;" vertex="1" parent="1">
          <mxGeometry x="476" y="679" width="140" height="130" as="geometry" />
        </mxCell>
        <mxCell id="kCbmd7u-PkFG1ZoSzvHW-33" value="- numero_carta" style="text;strokeColor=none;fillColor=none;align=left;verticalAlign=top;spacingLeft=4;spacingRight=4;overflow=hidden;rotatable=0;points=[[0,0.5],[1,0.5]];portConstraint=eastwest;whiteSpace=wrap;html=1;labelBackgroundColor=none;fontColor=#143642;rounded=0;" vertex="1" parent="kCbmd7u-PkFG1ZoSzvHW-32">
          <mxGeometry y="26" width="140" height="26" as="geometry" />
        </mxCell>
        <mxCell id="kCbmd7u-PkFG1ZoSzvHW-34" value="- data_scadenaza" style="text;strokeColor=none;fillColor=none;align=left;verticalAlign=top;spacingLeft=4;spacingRight=4;overflow=hidden;rotatable=0;points=[[0,0.5],[1,0.5]];portConstraint=eastwest;whiteSpace=wrap;html=1;labelBackgroundColor=none;fontColor=#143642;rounded=0;" vertex="1" parent="kCbmd7u-PkFG1ZoSzvHW-32">
          <mxGeometry y="52" width="140" height="26" as="geometry" />
        </mxCell>
        <mxCell id="kCbmd7u-PkFG1ZoSzvHW-35" value="- circuito" style="text;strokeColor=none;fillColor=none;align=left;verticalAlign=top;spacingLeft=4;spacingRight=4;overflow=hidden;rotatable=0;points=[[0,0.5],[1,0.5]];portConstraint=eastwest;whiteSpace=wrap;html=1;labelBackgroundColor=none;fontColor=#143642;rounded=0;" vertex="1" parent="kCbmd7u-PkFG1ZoSzvHW-32">
          <mxGeometry y="78" width="140" height="26" as="geometry" />
        </mxCell>
        <mxCell id="kCbmd7u-PkFG1ZoSzvHW-37" value="- banca" style="text;strokeColor=none;fillColor=none;align=left;verticalAlign=top;spacingLeft=4;spacingRight=4;overflow=hidden;rotatable=0;points=[[0,0.5],[1,0.5]];portConstraint=eastwest;whiteSpace=wrap;html=1;labelBackgroundColor=none;fontColor=#143642;rounded=0;" vertex="1" parent="kCbmd7u-PkFG1ZoSzvHW-32">
          <mxGeometry y="104" width="140" height="26" as="geometry" />
        </mxCell>
        <mxCell id="kCbmd7u-PkFG1ZoSzvHW-57" value="Pagamento&amp;nbsp;&lt;br&gt;online" style="swimlane;fontStyle=0;childLayout=stackLayout;horizontal=1;startSize=26;fillColor=none;horizontalStack=0;resizeParent=1;resizeParentMax=0;resizeLast=0;collapsible=1;marginBottom=0;whiteSpace=wrap;html=1;labelBackgroundColor=none;strokeColor=#0F8B8D;fontColor=#143642;rounded=0;" vertex="1" parent="1">
          <mxGeometry x="147" y="616" width="140" height="52" as="geometry" />
        </mxCell>
        <mxCell id="kCbmd7u-PkFG1ZoSzvHW-61" value="Pagamento_in_struttura" style="swimlane;fontStyle=0;childLayout=stackLayout;horizontal=1;startSize=26;fillColor=none;horizontalStack=0;resizeParent=1;resizeParentMax=0;resizeLast=0;collapsible=1;marginBottom=0;whiteSpace=wrap;html=1;labelBackgroundColor=none;strokeColor=#0F8B8D;fontColor=#143642;rounded=0;" vertex="1" parent="1">
          <mxGeometry x="140" y="945" width="167" height="52" as="geometry" />
        </mxCell>
        <mxCell id="kCbmd7u-PkFG1ZoSzvHW-125" style="edgeStyle=orthogonalEdgeStyle;rounded=0;orthogonalLoop=1;jettySize=auto;html=1;entryX=1;entryY=0.5;entryDx=0;entryDy=0;labelBackgroundColor=none;strokeColor=#A8201A;fontColor=default;" edge="1" parent="1" source="kCbmd7u-PkFG1ZoSzvHW-65" target="kCbmd7u-PkFG1ZoSzvHW-81">
          <mxGeometry relative="1" as="geometry">
            <Array as="points">
              <mxPoint x="-322" y="1071" />
              <mxPoint x="1001" y="1071" />
              <mxPoint x="1001" y="88" />
            </Array>
          </mxGeometry>
        </mxCell>
        <mxCell id="kCbmd7u-PkFG1ZoSzvHW-65" value="Dipendente" style="swimlane;fontStyle=0;childLayout=stackLayout;horizontal=1;startSize=26;fillColor=none;horizontalStack=0;resizeParent=1;resizeParentMax=0;resizeLast=0;collapsible=1;marginBottom=0;whiteSpace=wrap;html=1;labelBackgroundColor=none;strokeColor=#0F8B8D;fontColor=#143642;rounded=0;" vertex="1" parent="1">
          <mxGeometry x="-392" y="987" width="140" height="52" as="geometry" />
        </mxCell>
        <mxCell id="kCbmd7u-PkFG1ZoSzvHW-90" value="- stipendio" style="text;strokeColor=none;fillColor=none;align=left;verticalAlign=top;spacingLeft=4;spacingRight=4;overflow=hidden;rotatable=0;points=[[0,0.5],[1,0.5]];portConstraint=eastwest;whiteSpace=wrap;html=1;labelBackgroundColor=none;fontColor=#143642;rounded=0;" vertex="1" parent="kCbmd7u-PkFG1ZoSzvHW-65">
          <mxGeometry y="26" width="140" height="26" as="geometry" />
        </mxCell>
        <mxCell id="kCbmd7u-PkFG1ZoSzvHW-68" value="Iscrizione" style="swimlane;fontStyle=0;childLayout=stackLayout;horizontal=1;startSize=26;fillColor=none;horizontalStack=0;resizeParent=1;resizeParentMax=0;resizeLast=0;collapsible=1;marginBottom=0;whiteSpace=wrap;html=1;labelBackgroundColor=none;strokeColor=#0F8B8D;fontColor=#143642;rounded=0;" vertex="1" parent="1">
          <mxGeometry x="-7" y="77" width="220" height="104" as="geometry" />
        </mxCell>
        <mxCell id="kCbmd7u-PkFG1ZoSzvHW-69" value="- id_iscrizione" style="text;strokeColor=none;fillColor=none;align=left;verticalAlign=top;spacingLeft=4;spacingRight=4;overflow=hidden;rotatable=0;points=[[0,0.5],[1,0.5]];portConstraint=eastwest;whiteSpace=wrap;html=1;labelBackgroundColor=none;fontColor=#143642;rounded=0;" vertex="1" parent="kCbmd7u-PkFG1ZoSzvHW-68">
          <mxGeometry y="26" width="220" height="26" as="geometry" />
        </mxCell>
        <mxCell id="kCbmd7u-PkFG1ZoSzvHW-70" value="- orario_iscrizione" style="text;strokeColor=none;fillColor=none;align=left;verticalAlign=top;spacingLeft=4;spacingRight=4;overflow=hidden;rotatable=0;points=[[0,0.5],[1,0.5]];portConstraint=eastwest;whiteSpace=wrap;html=1;labelBackgroundColor=none;fontColor=#143642;rounded=0;" vertex="1" parent="kCbmd7u-PkFG1ZoSzvHW-68">
          <mxGeometry y="52" width="220" height="26" as="geometry" />
        </mxCell>
        <mxCell id="kCbmd7u-PkFG1ZoSzvHW-71" value="- data_iscrizione" style="text;strokeColor=none;fillColor=none;align=left;verticalAlign=top;spacingLeft=4;spacingRight=4;overflow=hidden;rotatable=0;points=[[0,0.5],[1,0.5]];portConstraint=eastwest;whiteSpace=wrap;html=1;labelBackgroundColor=none;fontColor=#143642;rounded=0;" vertex="1" parent="kCbmd7u-PkFG1ZoSzvHW-68">
          <mxGeometry y="78" width="220" height="26" as="geometry" />
        </mxCell>
        <mxCell id="kCbmd7u-PkFG1ZoSzvHW-121" style="edgeStyle=orthogonalEdgeStyle;rounded=0;orthogonalLoop=1;jettySize=auto;html=1;entryX=0.5;entryY=0;entryDx=0;entryDy=0;labelBackgroundColor=none;strokeColor=#A8201A;fontColor=default;" edge="1" parent="1" source="kCbmd7u-PkFG1ZoSzvHW-77" target="kCbmd7u-PkFG1ZoSzvHW-21">
          <mxGeometry relative="1" as="geometry">
            <Array as="points">
              <mxPoint x="742" y="249" />
              <mxPoint x="742" y="249" />
            </Array>
          </mxGeometry>
        </mxCell>
        <mxCell id="kCbmd7u-PkFG1ZoSzvHW-77" value="Corso" style="swimlane;fontStyle=0;childLayout=stackLayout;horizontal=1;startSize=26;fillColor=none;horizontalStack=0;resizeParent=1;resizeParentMax=0;resizeLast=0;collapsible=1;marginBottom=0;whiteSpace=wrap;html=1;labelBackgroundColor=none;strokeColor=#0F8B8D;fontColor=#143642;rounded=0;" vertex="1" parent="1">
          <mxGeometry x="675" y="-29" width="140" height="234" as="geometry" />
        </mxCell>
        <mxCell id="kCbmd7u-PkFG1ZoSzvHW-78" value="- nome" style="text;strokeColor=none;fillColor=none;align=left;verticalAlign=top;spacingLeft=4;spacingRight=4;overflow=hidden;rotatable=0;points=[[0,0.5],[1,0.5]];portConstraint=eastwest;whiteSpace=wrap;html=1;labelBackgroundColor=none;fontColor=#143642;rounded=0;" vertex="1" parent="kCbmd7u-PkFG1ZoSzvHW-77">
          <mxGeometry y="26" width="140" height="26" as="geometry" />
        </mxCell>
        <mxCell id="kCbmd7u-PkFG1ZoSzvHW-79" value="- descrizione" style="text;strokeColor=none;fillColor=none;align=left;verticalAlign=top;spacingLeft=4;spacingRight=4;overflow=hidden;rotatable=0;points=[[0,0.5],[1,0.5]];portConstraint=eastwest;whiteSpace=wrap;html=1;labelBackgroundColor=none;fontColor=#143642;rounded=0;" vertex="1" parent="kCbmd7u-PkFG1ZoSzvHW-77">
          <mxGeometry y="52" width="140" height="26" as="geometry" />
        </mxCell>
        <mxCell id="kCbmd7u-PkFG1ZoSzvHW-80" value="-&amp;nbsp; data_inizio" style="text;strokeColor=none;fillColor=none;align=left;verticalAlign=top;spacingLeft=4;spacingRight=4;overflow=hidden;rotatable=0;points=[[0,0.5],[1,0.5]];portConstraint=eastwest;whiteSpace=wrap;html=1;labelBackgroundColor=none;fontColor=#143642;rounded=0;" vertex="1" parent="kCbmd7u-PkFG1ZoSzvHW-77">
          <mxGeometry y="78" width="140" height="26" as="geometry" />
        </mxCell>
        <mxCell id="kCbmd7u-PkFG1ZoSzvHW-81" value="- data_fine" style="text;strokeColor=none;fillColor=none;align=left;verticalAlign=top;spacingLeft=4;spacingRight=4;overflow=hidden;rotatable=0;points=[[0,0.5],[1,0.5]];portConstraint=eastwest;whiteSpace=wrap;html=1;labelBackgroundColor=none;fontColor=#143642;rounded=0;" vertex="1" parent="kCbmd7u-PkFG1ZoSzvHW-77">
          <mxGeometry y="104" width="140" height="26" as="geometry" />
        </mxCell>
        <mxCell id="kCbmd7u-PkFG1ZoSzvHW-82" value="- campo" style="text;strokeColor=none;fillColor=none;align=left;verticalAlign=top;spacingLeft=4;spacingRight=4;overflow=hidden;rotatable=0;points=[[0,0.5],[1,0.5]];portConstraint=eastwest;whiteSpace=wrap;html=1;labelBackgroundColor=none;fontColor=#143642;rounded=0;" vertex="1" parent="kCbmd7u-PkFG1ZoSzvHW-77">
          <mxGeometry y="130" width="140" height="26" as="geometry" />
        </mxCell>
        <mxCell id="kCbmd7u-PkFG1ZoSzvHW-83" value="- orario" style="text;strokeColor=none;fillColor=none;align=left;verticalAlign=top;spacingLeft=4;spacingRight=4;overflow=hidden;rotatable=0;points=[[0,0.5],[1,0.5]];portConstraint=eastwest;whiteSpace=wrap;html=1;labelBackgroundColor=none;fontColor=#143642;rounded=0;" vertex="1" parent="kCbmd7u-PkFG1ZoSzvHW-77">
          <mxGeometry y="156" width="140" height="26" as="geometry" />
        </mxCell>
        <mxCell id="kCbmd7u-PkFG1ZoSzvHW-84" value="- costo_iscrizione" style="text;strokeColor=none;fillColor=none;align=left;verticalAlign=top;spacingLeft=4;spacingRight=4;overflow=hidden;rotatable=0;points=[[0,0.5],[1,0.5]];portConstraint=eastwest;whiteSpace=wrap;html=1;labelBackgroundColor=none;fontColor=#143642;rounded=0;" vertex="1" parent="kCbmd7u-PkFG1ZoSzvHW-77">
          <mxGeometry y="182" width="140" height="26" as="geometry" />
        </mxCell>
        <mxCell id="kCbmd7u-PkFG1ZoSzvHW-85" value="- max_iscritti" style="text;strokeColor=none;fillColor=none;align=left;verticalAlign=top;spacingLeft=4;spacingRight=4;overflow=hidden;rotatable=0;points=[[0,0.5],[1,0.5]];portConstraint=eastwest;whiteSpace=wrap;html=1;labelBackgroundColor=none;fontColor=#143642;rounded=0;" vertex="1" parent="kCbmd7u-PkFG1ZoSzvHW-77">
          <mxGeometry y="208" width="140" height="26" as="geometry" />
        </mxCell>
        <mxCell id="kCbmd7u-PkFG1ZoSzvHW-115" style="edgeStyle=orthogonalEdgeStyle;rounded=0;orthogonalLoop=1;jettySize=auto;html=1;entryX=0.133;entryY=0.018;entryDx=0;entryDy=0;entryPerimeter=0;labelBackgroundColor=none;strokeColor=#A8201A;fontColor=default;" edge="1" parent="1" source="kCbmd7u-PkFG1ZoSzvHW-86" target="kCbmd7u-PkFG1ZoSzvHW-77">
          <mxGeometry relative="1" as="geometry">
            <mxPoint x="588" y="7" as="targetPoint" />
          </mxGeometry>
        </mxCell>
        <mxCell id="kCbmd7u-PkFG1ZoSzvHW-86" value="Istruttore" style="swimlane;fontStyle=0;childLayout=stackLayout;horizontal=1;startSize=26;fillColor=none;horizontalStack=0;resizeParent=1;resizeParentMax=0;resizeLast=0;collapsible=1;marginBottom=0;whiteSpace=wrap;html=1;labelBackgroundColor=none;strokeColor=#0F8B8D;fontColor=#143642;rounded=0;" vertex="1" parent="1">
          <mxGeometry x="-448" y="-63" width="140" height="78" as="geometry" />
        </mxCell>
        <mxCell id="kCbmd7u-PkFG1ZoSzvHW-89" value="- cv" style="text;strokeColor=none;fillColor=none;align=left;verticalAlign=top;spacingLeft=4;spacingRight=4;overflow=hidden;rotatable=0;points=[[0,0.5],[1,0.5]];portConstraint=eastwest;whiteSpace=wrap;html=1;labelBackgroundColor=none;fontColor=#143642;rounded=0;" vertex="1" parent="kCbmd7u-PkFG1ZoSzvHW-86">
          <mxGeometry y="26" width="140" height="26" as="geometry" />
        </mxCell>
        <mxCell id="kCbmd7u-PkFG1ZoSzvHW-91" value="- paga" style="text;strokeColor=none;fillColor=none;align=left;verticalAlign=top;spacingLeft=4;spacingRight=4;overflow=hidden;rotatable=0;points=[[0,0.5],[1,0.5]];portConstraint=eastwest;whiteSpace=wrap;html=1;labelBackgroundColor=none;fontColor=#143642;rounded=0;" vertex="1" parent="kCbmd7u-PkFG1ZoSzvHW-86">
          <mxGeometry y="52" width="140" height="26" as="geometry" />
        </mxCell>
        <mxCell id="kCbmd7u-PkFG1ZoSzvHW-97" style="edgeStyle=orthogonalEdgeStyle;rounded=0;orthogonalLoop=1;jettySize=auto;html=1;exitX=1;exitY=0.5;exitDx=0;exitDy=0;entryX=0;entryY=0.5;entryDx=0;entryDy=0;labelBackgroundColor=none;strokeColor=#A8201A;fontColor=default;" edge="1" parent="1" source="kCbmd7u-PkFG1ZoSzvHW-4">
          <mxGeometry relative="1" as="geometry">
            <mxPoint x="-392" y="1026" as="targetPoint" />
            <Array as="points">
              <mxPoint x="-435" y="525" />
              <mxPoint x="-435" y="1026" />
            </Array>
          </mxGeometry>
        </mxCell>
        <mxCell id="kCbmd7u-PkFG1ZoSzvHW-102" style="edgeStyle=orthogonalEdgeStyle;rounded=0;orthogonalLoop=1;jettySize=auto;html=1;exitX=1;exitY=0.5;exitDx=0;exitDy=0;entryX=0;entryY=0.5;entryDx=0;entryDy=0;labelBackgroundColor=none;strokeColor=#A8201A;fontColor=default;" edge="1" parent="1" source="kCbmd7u-PkFG1ZoSzvHW-13" target="kCbmd7u-PkFG1ZoSzvHW-24">
          <mxGeometry relative="1" as="geometry">
            <Array as="points">
              <mxPoint x="672" y="444" />
            </Array>
          </mxGeometry>
        </mxCell>
        <mxCell id="kCbmd7u-PkFG1ZoSzvHW-105" style="edgeStyle=orthogonalEdgeStyle;rounded=0;orthogonalLoop=1;jettySize=auto;html=1;exitX=1;exitY=0.5;exitDx=0;exitDy=0;entryX=0;entryY=0.5;entryDx=0;entryDy=0;labelBackgroundColor=none;strokeColor=#A8201A;fontColor=default;" edge="1" parent="1" source="kCbmd7u-PkFG1ZoSzvHW-29" target="kCbmd7u-PkFG1ZoSzvHW-57">
          <mxGeometry relative="1" as="geometry" />
        </mxCell>
        <mxCell id="kCbmd7u-PkFG1ZoSzvHW-106" style="edgeStyle=orthogonalEdgeStyle;rounded=0;orthogonalLoop=1;jettySize=auto;html=1;exitX=1;exitY=0.5;exitDx=0;exitDy=0;entryX=0;entryY=0.5;entryDx=0;entryDy=0;labelBackgroundColor=none;strokeColor=#A8201A;fontColor=default;" edge="1" parent="1" source="kCbmd7u-PkFG1ZoSzvHW-29" target="kCbmd7u-PkFG1ZoSzvHW-61">
          <mxGeometry relative="1" as="geometry" />
        </mxCell>
        <mxCell id="kCbmd7u-PkFG1ZoSzvHW-111" style="edgeStyle=orthogonalEdgeStyle;rounded=0;orthogonalLoop=1;jettySize=auto;html=1;entryX=0.607;entryY=0.022;entryDx=0;entryDy=0;entryPerimeter=0;labelBackgroundColor=none;strokeColor=#A8201A;fontColor=default;" edge="1" parent="1" source="kCbmd7u-PkFG1ZoSzvHW-68" target="kCbmd7u-PkFG1ZoSzvHW-27">
          <mxGeometry relative="1" as="geometry">
            <Array as="points">
              <mxPoint x="103" y="228" />
              <mxPoint x="-86" y="228" />
              <mxPoint x="-86" y="805" />
            </Array>
          </mxGeometry>
        </mxCell>
        <mxCell id="kCbmd7u-PkFG1ZoSzvHW-112" style="edgeStyle=orthogonalEdgeStyle;rounded=0;orthogonalLoop=1;jettySize=auto;html=1;entryX=0.357;entryY=0.05;entryDx=0;entryDy=0;entryPerimeter=0;labelBackgroundColor=none;strokeColor=#A8201A;fontColor=default;" edge="1" parent="1" source="kCbmd7u-PkFG1ZoSzvHW-11" target="kCbmd7u-PkFG1ZoSzvHW-27">
          <mxGeometry relative="1" as="geometry" />
        </mxCell>
        <mxCell id="kCbmd7u-PkFG1ZoSzvHW-117" style="edgeStyle=orthogonalEdgeStyle;rounded=0;orthogonalLoop=1;jettySize=auto;html=1;entryX=-0.002;entryY=0.145;entryDx=0;entryDy=0;entryPerimeter=0;labelBackgroundColor=none;strokeColor=#A8201A;fontColor=default;" edge="1" parent="1" source="kCbmd7u-PkFG1ZoSzvHW-6" target="kCbmd7u-PkFG1ZoSzvHW-11">
          <mxGeometry relative="1" as="geometry" />
        </mxCell>
        <mxCell id="kCbmd7u-PkFG1ZoSzvHW-118" style="edgeStyle=orthogonalEdgeStyle;rounded=0;orthogonalLoop=1;jettySize=auto;html=1;entryX=0.11;entryY=0.061;entryDx=0;entryDy=0;entryPerimeter=0;labelBackgroundColor=none;strokeColor=#A8201A;fontColor=default;" edge="1" parent="1" source="kCbmd7u-PkFG1ZoSzvHW-6" target="kCbmd7u-PkFG1ZoSzvHW-27">
          <mxGeometry relative="1" as="geometry" />
        </mxCell>
        <mxCell id="kCbmd7u-PkFG1ZoSzvHW-120" style="edgeStyle=orthogonalEdgeStyle;rounded=0;orthogonalLoop=1;jettySize=auto;html=1;entryX=0.005;entryY=-0.154;entryDx=0;entryDy=0;entryPerimeter=0;labelBackgroundColor=none;strokeColor=#A8201A;fontColor=default;" edge="1" parent="1" source="kCbmd7u-PkFG1ZoSzvHW-57" target="kCbmd7u-PkFG1ZoSzvHW-35">
          <mxGeometry relative="1" as="geometry" />
        </mxCell>
        <mxCell id="kCbmd7u-PkFG1ZoSzvHW-122" style="edgeStyle=orthogonalEdgeStyle;rounded=0;orthogonalLoop=1;jettySize=auto;html=1;entryX=0;entryY=0.5;entryDx=0;entryDy=0;labelBackgroundColor=none;strokeColor=#A8201A;fontColor=default;" edge="1" parent="1" source="kCbmd7u-PkFG1ZoSzvHW-70" target="kCbmd7u-PkFG1ZoSzvHW-81">
          <mxGeometry relative="1" as="geometry" />
        </mxCell>
        <mxCell id="kCbmd7u-PkFG1ZoSzvHW-123" style="edgeStyle=orthogonalEdgeStyle;rounded=0;orthogonalLoop=1;jettySize=auto;html=1;entryX=0.612;entryY=-0.012;entryDx=0;entryDy=0;entryPerimeter=0;labelBackgroundColor=none;strokeColor=#A8201A;fontColor=default;" edge="1" parent="1" target="kCbmd7u-PkFG1ZoSzvHW-32">
          <mxGeometry relative="1" as="geometry">
            <mxPoint x="-316" y="368" as="sourcePoint" />
            <mxPoint x="559.44" y="654.2199999999998" as="targetPoint" />
          </mxGeometry>
        </mxCell>
        <mxCell id="kCbmd7u-PkFG1ZoSzvHW-124" style="edgeStyle=orthogonalEdgeStyle;rounded=0;orthogonalLoop=1;jettySize=auto;html=1;exitX=1;exitY=0.5;exitDx=0;exitDy=0;entryX=0.519;entryY=1.038;entryDx=0;entryDy=0;entryPerimeter=0;labelBackgroundColor=none;strokeColor=#A8201A;fontColor=default;" edge="1" parent="1">
          <mxGeometry relative="1" as="geometry">
            <mxPoint x="-244" y="1025.01" as="sourcePoint" />
            <mxPoint x="-101.33999999999969" y="906.9979999999998" as="targetPoint" />
          </mxGeometry>
        </mxCell>
      </root>
    </mxGraphModel>
  </diagram>
</mxfile>
